<?xml version="1.0" encoding="UTF-8"?><svg id="Capa_1" xmlns="http://www.w3.org/2000/svg" viewBox="0 0 1080 1080"><defs><style>.cls-1{fill:#004780;}</style></defs><path class="cls-1" d="M532.01,266.9c86.48,169.3,171.36,335.45,257.65,504.38-46.46,2.1-86.84-4.57-117.39-37.47-14.25-15.35-25.48-34.18-35.23-52.91-40.88-78.63-80.68-157.83-120.91-236.81-1.48-2.9-3.39-5.58-6.66-10.9-3.65,5.98-6.49,10.02-8.72,14.37-52.63,102.55-105.42,205.03-157.51,307.86-6.55,12.94-13.81,19.45-28.87,17.73-12.24-1.4-24.77-.28-41.37-.28,87.04-170.03,172.25-336.5,259.01-505.97Z"/><rect class="cls-1" x="396.63" y="676.51" width="16.11" height="28.19" rx="8.05" ry="8.05"/><rect class="cls-1" x="424.82" y="644.3" width="20.13" height="92.61" rx="10.07" ry="10.07"/><rect class="cls-1" x="457.03" y="616.11" width="20.13" height="153.01" rx="10.07" ry="10.07"/><rect class="cls-1" x="485.22" y="583.9" width="32.21" height="213.41" rx="16.11" ry="16.11"/><rect class="cls-1" x="525.48" y="616.11" width="20.13" height="148.98" rx="10.07" ry="10.07"/><rect class="cls-1" x="557.69" y="644.3" width="20.13" height="92.61" rx="10.07" ry="10.07"/><rect class="cls-1" x="589.91" y="676.51" width="16.11" height="28.19" rx="8.05" ry="8.05"/></svg>