<?xml version="1.0" encoding="UTF-8"?><svg id="Capa_1" xmlns="http://www.w3.org/2000/svg" viewBox="0 0 1080 1080"><defs><style>.cls-1{fill:#004780;}</style></defs><path class="cls-1" d="M290.7,496.61c7.49-7.64,15.12-11.04,24.26-10.48,8.69,.53,16.74,2.71,22.34,9.01,5.26-2.66,9.92-5.72,15.03-7.47,13.68-4.7,28.52,.46,34.67,12.1,2.14,4.05,3.86,8.87,3.96,13.38,.48,21.91,.35,43.84,.42,65.76,0,.43-.24,.86-.36,1.28-8.8-1.54-16-8.59-17.71-17.56-.66-3.45-1.01-7-1.06-10.52-.14-9.78-.04-19.57-.06-29.35,0-2,0-4.02-.21-6-.74-7.38-4.69-11.88-11.32-12.99-7.33-1.23-14.87,2.2-17.65,8.25-.6,1.31-.64,2.97-.64,4.46-.04,20.16-.08,40.31,.03,60.47,.02,2.88-.73,4.02-3.74,3.83-3.76-.23-7.55-.24-11.31,0-3.17,.2-4.25-.73-4.22-4.09,.16-19.56,0-39.13,.13-58.7,.03-5.14-.61-9.81-5.65-12.35-5.57-2.82-11.27-3.22-16.82,.27-4.96,3.12-7.81,6.84-7.63,13.46,.52,19.08,.1,38.18,.26,57.28,.03,3.35-1.06,4.33-4.24,4.13-3.64-.23-7.32-.28-10.95,.01-3.45,.28-4.1-1.17-4.08-4.27,.11-20.86,.06-41.72,.06-62.59,0-7.66,.08-15.32-.04-22.98-.04-2.47,.84-3.24,3.27-3.28,6.07-.1,12.56-1.26,13.27,8.95Z"/><path class="cls-1" d="M642.6,534.32c.11,18-5.82,33.29-22.88,41.25-18.18,8.48-36.45,7.76-53.1-4.57-8.33-6.17-12.55-15.08-14.31-25.17-1.93-11.04-1.11-21.84,3.36-32.19,4.27-9.89,11.55-16.84,21.53-20.78,11.64-4.6,23.72-5.23,35.76-2.2,19.31,4.86,27.8,19.49,29.61,36.59,.25,2.33,.03,4.71,.03,7.06Zm-19.33,.38l-.95-.18c0-1.89,.1-3.78-.02-5.65-.83-13.84-8.78-22.23-22.15-23.47-11.34-1.05-21.58,4.51-25.24,14.22-3.74,9.93-3.77,20.11-.04,30.06,3.4,9.08,12.03,14.67,22.08,14.83,11.26,.19,19.1-4.11,22.61-13.45,1.94-5.19,2.52-10.89,3.72-16.36Z"/><path class="cls-1" d="M815.3,513.12c-2.66-5.35-5.31-10.43-7.62-15.67-.29-.65,.99-2.48,1.96-3.11,10.04-6.5,21.08-9.18,32.96-7.94,3.84,.4,7.72,1.12,11.39,2.28,12.88,4.08,18.8,13.92,19.73,26.57,.94,12.78,.68,25.65,.86,38.49,.1,7.78-.12,15.56,.09,23.33,.09,3.29-1.15,3.76-3.99,3.2-5.48-1.08-10.01-3.43-12.66-9.13-1.38,1.01-2.37,1.75-3.37,2.47-9.26,6.63-19.8,8.76-30.58,6.28-21.15-4.86-28.37-31.12-13.13-47.15,10.87-11.43,24.71-14.81,40.05-13.14,1.03,.11,2.05,.27,3.06,.4,1.19-6.46-3.33-13.59-9.68-14.88-9.95-2.01-19.21-.57-27.01,6.57-.49,.45-1.1,.77-2.06,1.43Zm39.54,36.14c0-2.24-.1-4.48,.03-6.7,.13-2.38-.87-3.5-3.23-3.58-.93-.03-1.86-.29-2.78-.44-8.95-1.44-19.68,3.1-24.08,10.19-5.79,9.33-1.14,18.41,9.74,18.96,1.64,.08,3.31,.06,4.93-.16,5.63-.75,10.51-3.45,13.66-7.92,1.65-2.34,1.24-6.14,1.74-9.29,.06-.34,0-.7,0-1.06Z"/><path class="cls-1" d="M409.44,513.2c-2.59-5.16-5.26-10.13-7.48-15.29-.36-.83,.94-3.03,2.03-3.72,9.95-6.38,20.9-9.02,32.66-7.79,3.84,.4,7.72,1.12,11.4,2.26,11.46,3.56,17.36,11.99,19.37,23.4,.71,4.04,1.12,8.19,1.15,12.29,.13,17.56,.06,35.12,.05,52.68,0,1.03-.12,2.06-.2,3.45-7.12-.19-12.79-2.43-16.39-9.23-1.3,.94-2.39,1.75-3.51,2.54-9.21,6.45-19.62,8.53-30.3,6.13-19.73-4.44-27.94-28.35-15.44-44.41,10.54-13.55,25.18-17.29,41.59-16.05,1.05,.08,2.09,.35,3.13,.49,.2,.03,.43-.13,.64-.21,1.24-8.28-4.88-15.03-14.29-15.37-8.6-.31-16.67,1.35-22.98,7.91-.31,.32-.76,.51-1.44,.95Zm39.52,36.12c0-2.24-.08-4.48,.02-6.71,.11-2.33-.82-3.53-3.21-3.63-1.05-.04-2.08-.35-3.13-.51-8.99-1.34-19.69,3.36-23.95,10.52-5.47,9.19-.78,18.14,9.83,18.69,1.64,.09,3.31,.07,4.93-.15,5.63-.75,10.01-3.77,13.88-7.74,2.73-2.81,1.22-6.26,1.62-9.41,.04-.35,0-.71,0-1.06Z"/><path class="cls-1" d="M671.6,498.57c4.32-2.44,8.08-5.15,12.27-6.8,11.09-4.37,22.27-4.17,32.61,2.06,8.27,4.98,11.52,13.5,11.77,22.59,.54,19.54,.3,39.11,.43,58.67,.01,2.1-.76,2.94-2.91,2.89-4.59-.1-9.2-.18-13.78,.03-2.89,.13-3.57-1.03-3.55-3.71,.1-16.14,.09-32.28,0-48.43-.02-3.16-.19-6.4-.93-9.44-2.05-8.48-8.26-12.48-16.87-11.1-6.56,1.05-12.39,3.85-17.24,8.33-1.16,1.07-1.8,3.26-1.81,4.94-.13,18.14-.08,36.29-.08,54.43q0,4.92-5.07,4.93c-3.89,0-7.78-.12-11.66,.04-2.68,.11-3.43-.99-3.42-3.54,.06-26.75,.07-53.49,0-80.24,0-2.54,.97-3.28,3.34-3.21,4.12,.12,8.26,.19,12.37-.02,2.96-.16,4.47,.62,4.15,3.86-.12,1.21,.24,2.46,.39,3.73Z"/><path class="cls-1" d="M954.52,513.9c-4.22-1.91-7.66-3.66-11.24-5.05-7.26-2.83-14.79-3.83-22.55-2.85-9.95,1.26-16.77,6.7-20.11,16.03-3.15,8.79-3.29,17.84-.15,26.7,4.02,11.33,14.62,16.95,27.88,15.46,7.86-.89,15.1-3.45,22.05-7.06,1.11-.58,2.25-1.1,4.08-1.99,0,5.61,.13,10.63-.12,15.62-.05,.93-1.45,2.22-2.5,2.61-6.13,2.3-12.2,5.16-18.56,6.36-11.01,2.08-22.12,1.74-32.53-3.22-15.58-7.43-22.01-20.69-23.48-37.16-1.81-20.25,8.48-38.7,26.45-46.03,15.86-6.47,31.72-5.65,47.36,1.22,2.63,1.16,3.67,2.79,3.5,5.71-.25,4.32-.07,8.67-.07,13.66Z"/><path class="cls-1" d="M545.87,514.08c-2.49-1.28-4.24-2.16-5.98-3.06-6.59-3.42-13.59-5.23-21.02-5.39-14.86-.32-25.31,8.67-26.73,23.46-.64,6.66-.83,13.39,1.7,19.89,3.87,9.95,11.6,15.43,22.24,15.4,9.06-.02,17.37-2.71,25.24-7.03,1.3-.71,2.67-1.28,4.54-2.16,0,5.38,.1,10.18-.08,14.97-.04,.94-.95,2.15-1.8,2.72-13.92,9.47-41.19,11.41-55.93,.12-8.36-6.4-13.38-14.8-15.36-24.97-2.27-11.67-1.99-23.21,3.2-34.21,6.24-13.24,16.84-20.83,31.03-23.65,12.42-2.47,24.36-1.02,35.79,4.49,2.24,1.08,3.37,2.51,3.23,5.2-.23,4.46-.06,8.93-.06,14.23Z"/><path class="cls-1" d="M734.32,492.16c4.95,0,9.06-.09,13.17,.03,2.44,.07,3.83-.52,4.52-3.21,1.49-5.8,3.5-11.47,5.14-17.24,.58-2.03,1.51-2.96,3.7-2.8,2.23,.17,4.49,.18,6.71,0,2.58-.2,3.2,.94,3.14,3.31-.14,5.3,.11,10.61-.1,15.91-.12,3.02,.71,4.21,3.93,4.07,5.65-.24,11.31,0,16.97-.1,2.08-.03,2.86,.62,2.95,2.81,.48,11.14,.54,11.14-10.53,11.14-4.22,0-8.44,0-12.94,0-.13,1.36-.3,2.36-.31,3.37-.02,14.97-.04,29.93,0,44.9,.03,8.7,2.83,11.39,11.6,11.09,3.39-.12,6.77-.57,10.79-.93,0,3.91,.14,7.61-.11,11.29-.06,.81-1.4,1.88-2.36,2.22-8.89,3.07-18.02,4.07-27.04,1.1-8.99-2.97-11.59-10.75-12.65-19.15-.46-3.61-.42-7.29-.43-10.94-.05-13.08-.1-26.16,.05-39.24,.03-3-.96-3.94-3.84-3.75-3.05,.21-6.13-.04-9.19,.07-2.21,.08-3.27-.62-3.19-3,.12-3.5,.03-7.01,.03-10.95Z"/><path class="cls-1" d="M1018.82,493.16v13.85c-6.02,0-11.86-.03-17.71,0-7.06,.04-6.16-.74-6.18,6.24-.04,13.19-.03,26.39,.02,39.58,0,1.99,.19,4.01,.59,5.95,.87,4.21,3.62,6.55,7.93,6.61,3.17,.04,6.34-.32,9.51-.52,1.37-.09,2.74-.22,4.59-.36,0,3.86,.14,7.37-.1,10.84-.06,.85-1.24,2.03-2.16,2.35-9.11,3.17-18.41,4.13-27.7,1.06-7.78-2.57-10.76-9.08-12.04-16.49-.64-3.69-.89-7.49-.92-11.24-.11-13.55-.1-27.09,0-40.64,.02-2.6-.69-3.6-3.38-3.43-3.29,.2-6.6-.06-9.89,.08-2.17,.09-3.05-.78-2.87-2.87,.01-.12,0-.24,0-.35-.37-10.66-.37-10.61,10.18-10.68,7.87-.05,6.15,1.16,8.6-6.19,1.49-4.46,2.86-8.96,4.12-13.49,.53-1.92,1.52-2.57,3.48-2.65,10.03-.4,10.02-.45,10.02,9.53,0,3.06,.14,6.13-.04,9.19-.17,2.75,.75,3.78,3.6,3.69,5.41-.19,10.84-.05,16.25-.05,1.26,0,2.53,0,4.08,0Z"/><path class="cls-1" d="M259.71,580.54c-8.65-2.59-13.71-8-15.75-16.12-.82-3.28-1.24-6.75-1.25-10.13-.1-31-.03-61.99-.12-92.99,0-2.82,.63-4.09,3.7-3.88,3.52,.24,7.07,.16,10.6,.02,2.34-.1,3.12,.83,3.05,3.09-.12,4-.03,8.01-.03,12.02,0,34.53,0,69.07,0,103.6,0,1.35-.12,2.71-.2,4.39Z"/><g><path class="cls-1" d="M174.15,456.12c21.01,41.13,41.63,81.5,62.6,122.55-11.29,.51-21.1-1.11-28.52-9.1-3.46-3.73-6.19-8.3-8.56-12.86-9.93-19.11-19.6-38.35-29.38-57.54-.36-.71-.82-1.36-1.62-2.65-.89,1.45-1.58,2.43-2.12,3.49-12.79,24.92-25.61,49.82-38.27,74.8-1.59,3.14-3.36,4.73-7.01,4.31-2.97-.34-6.02-.07-10.05-.07,21.15-41.31,41.85-81.76,62.93-122.93Z"/><rect class="cls-1" x="141.26" y="555.64" width="3.91" height="6.85" rx="1.38" ry="1.38"/><rect class="cls-1" x="148.11" y="547.82" width="4.89" height="22.5" rx="1.73" ry="1.73"/><rect class="cls-1" x="155.94" y="540.97" width="4.89" height="37.18" rx="1.73" ry="1.73"/><rect class="cls-1" x="162.78" y="533.14" width="7.83" height="51.85" rx="2.76" ry="2.76"/><rect class="cls-1" x="172.57" y="540.97" width="4.89" height="36.2" rx="1.73" ry="1.73"/><rect class="cls-1" x="180.39" y="547.82" width="4.89" height="22.5" rx="1.73" ry="1.73"/><rect class="cls-1" x="188.22" y="555.64" width="3.91" height="6.85" rx="1.38" ry="1.38"/></g></svg>